<?xml version="1.0" encoding="utf-8"?>
<!-- Generator: Adobe Illustrator 22.1.0, SVG Export Plug-In . SVG Version: 6.00 Build 0)  -->
<svg version="1.1" id="Ebene_1" xmlns="http://www.w3.org/2000/svg" xmlns:xlink="http://www.w3.org/1999/xlink" x="0px" y="0px"
	 viewBox="0 0 419.5 238.1" style="enable-background:new 0 0 419.5 238.1;" xml:space="preserve">
<style type="text/css">
	.st0{fill:#FFFFFF;}
	.st1{fill:none;stroke:#FFFFFF;stroke-width:2.1748;}
	.st2{fill:none;stroke:#FFFFFF;stroke-width:1.0874;stroke-miterlimit:10;}
</style>
<path class="st0" d="M79.3,173.2v0.6l8.9,5.3l-13.6,41.4l-15.1-40.8l9.1-5.9v-0.6H38.7v0.6l9.1,5.5l1.4,3.7l-12.3,37.6l-15.8-41.7
	l9.1-5v-0.6H2v0.6l7.6,4.4L32.7,236h0.6l19.1-45.4l18,45.4H71l23.7-56.8l8.5-5.5v-0.6H79.3L79.3,173.2z M152.8,173.2v0.6l8.9,5.3
	l-13.6,41.4L133,179.7l9.1-5.9v-0.6h-29.8v0.6l9.1,5.5l1.4,3.7l-12.3,37.6l-15.8-41.7l9.1-5v-0.6H75.6v0.6l7.6,4.4l23.1,57.8h0.6
	l19.1-45.4l18,45.4h0.6l23.7-56.8l8.5-5.5v-0.6H152.8L152.8,173.2z M220.5,177.4v0.8c4,0.9,5.8,3,5.8,7.3v29.6c-5.8,6.2-10,10-17,10
	c-8.3,0-15.2-4.6-15.2-18.5c0-7.5,0.5-19.9,1.3-34.6l-0.5-0.2l-16.9,5.5v0.7c5.2,1.4,7.3,4,7.3,11.7v20.4c0,17.5,8.1,24.8,19.2,24.8
	c10.7,0,16.4-8.1,22.1-17.4l0.9,0.4l-1.2,17.1l0.3,0.2l18.4-6.3v-0.7c-5.3-1.2-10-4-10-11.9c0-17.5,0.8-28.8,2.4-44.2l-0.5-0.2
	L220.5,177.4L220.5,177.4z M297.6,174.5c-2.2-1.4-6.3-2.5-10.1-2.5c-9.4,0-15.2,9.5-18.2,17.2l-0.8-0.4l1.5-16.8l-0.5-0.4l-18.4,7.7
	v0.8c5.2,1.3,9.9,3.9,9.9,11.9c0,13-0.9,23.4-2.3,37l-9,4v0.6h37.5v-0.6l-17.3-5.1v-36.3c2.9-5.3,7.6-10,14-10
	c3.9,0,6.6,1.4,8.4,2.8l4.6,14.7h0.6V174.5L297.6,174.5z M335.1,233.1l-11.5-5.1v-36.4c5.6-5.9,10.2-10,17.2-10
	c7.9,0,14.6,4.6,14.6,18.5c0,7-0.6,17.7-2,28.8l-9.6,4.1v0.6h31.8v-0.6l-11.5-5.1v-31.2c0-1.7-0.1-3.2-0.2-4.7
	c5-5.9,10.2-10.4,17.4-10.4c7.9,0,14.6,4.6,14.6,18.5c0,7-0.6,17.7-2,28.8l-9.6,4.1v0.6h31.8v-0.6l-11.5-5.1v-31.2
	c0-17.7-7.8-24.8-18.5-24.8c-10.5,0-17.2,8.2-22.5,17.7c-1.8-12.4-9-17.7-18.1-17.7c-10.5,0-16.6,8.2-22.3,17.4l-0.8-0.4l1.2-17.1
	l-0.5-0.4l-18.4,7.7v0.8c5.2,1.3,9.9,3.9,9.9,11.9c0,13-0.9,23.4-2.3,37l-9,4v0.6h31.8V233.1L335.1,233.1z"/>
<path class="st1" d="M210.8,140.9c37.8,0,68.4-30.6,68.4-68.4c0-37.8-30.6-68.4-68.4-68.4c-37.8,0-68.4,30.6-68.4,68.4
	C142.4,110.2,173,140.9,210.8,140.9L210.8,140.9z"/>
<polygon points="235.1,35.5 228.8,102 222.4,35.3 216.1,102 209.7,35.5 209.7,41.1 216.1,107.5 222.4,40.9 228.8,107.5 235.1,41.1 
	235.1,35.5 "/>
<polygon class="st2" points="235.1,35.5 228.8,102 222.4,35.3 216.1,102 209.7,35.5 209.7,41.1 216.1,107.5 222.4,40.9 228.8,107.5 
	235.1,41.1 235.1,35.5 "/>
<polygon points="209.7,35.5 203.4,102 197,35.3 190.7,102 184.3,35.5 184.3,41.1 190.7,107.5 197,40.9 203.4,107.5 209.7,41.1 
	209.7,35.5 "/>
<polygon class="st2" points="209.7,35.5 203.4,102 197,35.3 190.7,102 184.3,35.5 184.3,41.1 190.7,107.5 197,40.9 203.4,107.5 
	209.7,41.1 209.7,35.5 "/>
<path class="st0" d="M167.6,27c-0.8,0.3-1.4,0.5-2,1.2c-1.4,1.4-1.9,3.9,0.7,6.4c1.7,1.7,4.5,2.6,6.4,0.6c0.8-0.9,1.3-2.2,1.3-3.4
	l-1.4-1.4l0.7-0.7l-0.6-0.6l-2.9,2.9l0.6,0.6l1.5-1.5l0.2,0.2c0.3,0.3,0.8,0.7,0.8,1.1c0.1,0.7-0.4,1.7-0.9,2.2
	c-0.9,0.9-2.9,1.1-5.1-1c-2.3-2.2-1.5-4.1-0.7-4.9c1.2-1.2,2.2-0.8,3.3,0.2l0.6-0.8c-0.4-0.3-0.7-0.5-1.1-0.9
	c-0.4-0.4-0.7-0.8-1-1.3l-0.8,0.4L167.6,27L167.6,27z M181.9,27.2l1.9-1.3l-0.5-0.7l-1,0.7l-3.1-4.4c-0.2-0.3-0.5-0.7-0.8-0.4
	c-0.2,0.1-0.2,0.3-0.2,0.5c-0.1,0.5-0.5,0.9-0.9,1.2l0.6,0.6l0.9-0.8l2.5,3.6c-0.4,0.7-0.9,1.4-1.5,1.9c-0.9,0.6-1.5,0.4-2.4-0.9
	l-2-2.8c-0.2-0.3-0.5-0.7-0.8-0.4c-0.2,0.1-0.2,0.3-0.2,0.5c-0.1,0.5-0.5,0.9-0.9,1.2l0.6,0.6l0.9-0.8l1.9,2.6
	c1.1,1.6,2.3,1.7,3.6,0.8c0.7-0.5,1.1-1.1,1.6-1.8L181.9,27.2L181.9,27.2z M185.4,15.7l-0.9,0.4l0.7,1.6l-2.1,0.9l0.4,0.8l2.1-0.9
	l1.5,3.4c0.6,1.4,1.6,1.8,2.7,1.3c0.9-0.4,1.9-1.2,2.7-1.8l-0.6-0.6c-0.7,0.6-1.6,1.3-2.4,1.6c-1,0.5-1.3-0.5-1.7-1.3l-1.3-2.9
	l3.4-1.5l-0.4-0.8l-3.4,1.5L185.4,15.7L185.4,15.7z M201.9,16.2c0-0.2,0-0.5-0.1-0.7c-0.4-1.9-2-2.9-3.9-2.4c-2,0.5-3.1,2.4-2.7,4.4
	c0.3,1.4,1.6,3.1,4.5,2.4c1.1-0.2,2.2-0.9,3.1-1.6l-0.5-0.7c-0.9,0.6-1.7,1.2-2.7,1.4c-1.7,0.4-2.9-0.2-3.3-1.5L201.9,16.2
	L201.9,16.2z M196.1,16.6c0-1.2,0.8-2.4,2-2.6c1.2-0.3,2.4,0.3,2.7,1.6L196.1,16.6L196.1,16.6z M211.7,12c-0.7-0.2-1.4-0.4-2.1-0.4
	c-1.4,0-2.9,0.7-2.9,2.2c0,2.7,5,1.1,5,2.9c0,0.9-1.4,1.1-2,1.1c-1.9,0-2.2-0.5-2.4-1.9l-1,0.1c0.2,0.4,0.2,0.8,0.2,1.2
	c0,0.4-0.1,0.9-0.2,1.3l0.9,0.3l0.2-0.6c0.8,0.3,1.4,0.5,2.3,0.5c1.3,0,3.1-0.4,3.1-2c0-2.8-5-1.3-5-3c0-1,1.1-1.2,1.9-1.2
	c1.6,0,1.8,0.5,2,1.2l0.1,0.4l1-0.1c-0.1-0.3-0.1-0.7-0.1-1c0-0.5,0.1-1,0.2-1.6l-0.9-0.2L211.7,12L211.7,12z M228.8,14.3l-0.3,0.8
	l1,0.4l0.2,6.5l0.9,0.4l4.6-4.6l1,0.4l0.3-0.8l-2.8-1.1l-0.3,0.8l0.9,0.4l-3.7,3.7l-0.1-5.3l0.9,0.4l0.3-0.8L228.8,14.3L228.8,14.3z
	 M239.3,26.9c1.7,1.1,3.8,0.6,4.9-1.1c1.1-1.7,0.6-3.8-1-4.9c-1.7-1.1-3.8-0.6-4.9,1.1C237.2,23.7,237.7,25.8,239.3,26.9L239.3,26.9
	z M239.8,26.2c-1.2-0.8-1.4-2.3-0.6-3.5c0.8-1.2,2.2-1.7,3.5-0.9c1.2,0.8,1.4,2.3,0.6,3.5C242.6,26.5,241.1,27,239.8,26.2
	L239.8,26.2z M249.7,27.8c0.5,0.1,1.1,0.2,1.5,0.5c0.4,0.4-0.2,1-0.5,1.3l-2.6,2.7l-0.5-0.5l-0.6,0.6l1.7,1.6l0.6-0.6l-0.5-0.5
	l3.1-3.1c0.5,0,1.1,0.2,1.5,0.5c0.5,0.5-0.2,1-0.5,1.4l-2.6,2.7l-0.5-0.5l-0.6,0.6l1.9,1.8l0.6-0.6l-0.7-0.7l2.6-2.7
	c0.3-0.3,0.6-0.6,0.8-1c0.3-0.6,0.1-1.2-0.3-1.6c-0.5-0.5-1.1-0.7-1.8-0.8c0.1-0.5,0-1-0.4-1.3c-0.4-0.4-0.9-0.5-1.4-0.7
	c0.2-0.3,0.6-0.6,0.2-0.9c-0.1-0.1-0.3-0.1-0.5-0.1c-0.5,0-0.9-0.3-1.3-0.7l-0.5,0.7l1,0.7l-3.4,3.5l-0.7-0.7l-0.6,0.6l1.9,1.8
	l0.6-0.6l-0.5-0.5L249.7,27.8L249.7,27.8z"/>
<path class="st0" d="M158.3,75.8c0.4-0.8,0.6-1.4,0.5-2.3c-0.1-2-1.6-4.2-5.4-4c-2.5,0.1-5.2,1.6-5,4.5c0.1,1.3,0.8,2.5,1.7,3.4
	l2.1-0.1l0,1l0.9,0l-0.2-4.3l-0.9,0l0.1,2.2l-0.4,0c-0.5,0-1.1,0.1-1.4-0.2c-0.7-0.4-1-1.5-1-2.3c-0.1-1.4,1.2-3,4.3-3.2
	c3.3-0.2,4.2,1.8,4.3,3c0.1,1.8-1,2.2-2.5,2.4l0.2,1c0.5-0.1,0.9-0.2,1.4-0.2c0.6,0,1.1,0,1.7,0.2l0.2-0.9L158.3,75.8L158.3,75.8z
	 M150.3,86.4l0.5,2.3l0.9-0.2l-0.3-1.3L157,86c0.4-0.1,0.8-0.2,0.7-0.7c0-0.2-0.2-0.3-0.4-0.4c-0.4-0.3-0.6-0.8-0.8-1.3l-0.8,0.3
	l0.4,1.2l-4.4,1c-0.5-0.6-1-1.4-1.2-2.2c-0.2-1.1,0.2-1.6,1.9-2l3.5-0.8c0.4-0.1,0.8-0.2,0.7-0.7c0-0.2-0.2-0.3-0.4-0.4
	c-0.4-0.3-0.6-0.8-0.8-1.3l-0.8,0.3l0.4,1.2l-3.3,0.7c-2,0.4-2.6,1.5-2.2,3.1c0.2,0.9,0.6,1.5,1.1,2.2L150.3,86.4L150.3,86.4z
	 M160.2,94.3c-0.1-0.7-0.2-1.4-0.5-2.1c-0.6-1.3-1.8-2.5-3.2-1.9c-2.6,1.1,0.9,5.3-0.8,6c-0.9,0.4-1.6-0.9-1.8-1.5
	c-0.8-1.9-0.4-2.4,0.9-3.1l-0.5-0.9c-0.3,0.3-0.7,0.5-1.1,0.7c-0.4,0.2-0.9,0.3-1.3,0.3l0.1,0.9l0.6-0.1c0,0.9,0.1,1.6,0.4,2.4
	c0.5,1.2,1.6,2.8,3.1,2.2c2.7-1.1-0.8-5.3,0.9-6c0.9-0.4,1.6,0.6,1.9,1.3c0.6,1.5,0.3,1.9-0.4,2.4l-0.3,0.2l0.5,0.9
	c0.3-0.2,0.6-0.4,0.9-0.5c0.5-0.2,1-0.3,1.6-0.4l-0.2-0.9L160.2,94.3L160.2,94.3z M165.2,99.4l-0.6-0.9l-1.6,1l-1.3-2l-0.8,0.5
	l1.3,2l-3.2,2c-1.4,0.9-1.6,1.9-0.9,3c0.6,0.9,1.5,1.8,2.3,2.5l0.6-0.8c-0.7-0.6-1.5-1.4-2-2.2c-0.6-1,0.3-1.5,1-1.9l2.8-1.8
	l2.1,3.3l0.8-0.5l-2.1-3.3L165.2,99.4L165.2,99.4z M169.3,113.8c0.2-0.1,0.4-0.3,0.6-0.4c1.5-1.4,1.6-3.3,0.2-4.8
	c-1.5-1.6-3.8-1.6-5.3-0.2c-1.1,1-2,3.1,0.1,5.3c0.8,0.9,1.9,1.6,3,2l0.4-0.8c-1-0.5-2-1-2.7-1.8c-1.2-1.3-1.3-2.8-0.3-3.8
	L169.3,113.8L169.3,113.8z M165.9,108.7c1.1-0.7,2.6-0.4,3.4,0.5c0.8,0.9,0.9,2.3,0,3.2L165.9,108.7L165.9,108.7z M174.6,116.7
	c0.9-0.1,2.7-0.2,3.4,0.3c0.4,0.3,0.2,0.8,0.1,1.1l1.1,0.3c0.3-0.8,0.2-1.6-0.5-2.1c-1-0.7-2.1-0.6-3.3-0.7l0.5-0.7
	c0.2-0.3,0.5-0.7,0.1-1c-0.2-0.1-0.3-0.1-0.5,0c-0.5,0-1-0.2-1.4-0.5l-0.4,0.8l1.1,0.6l-3.1,4l-1.2-0.9l-0.6,0.7l4.4,3.3l0.6-0.7
	l-2.4-1.8L174.6,116.7L174.6,116.7z M185.6,120.8c-0.3-0.3-0.7-0.6-1.1-0.8c-1.3-0.7-2.9-0.1-3.6,1.2c-0.5,0.9-0.4,1.7,0.2,2.6
	c-0.5,0.1-1.2,0.3-1.4,0.7c-0.2,0.3-0.1,0.6,0,0.8c-0.7,0.1-1.5,0.4-1.8,1.1c-0.8,1.6,1,2.7,2.2,3.3c1.5,0.8,3.9,1.5,4.9-0.4
	c0.6-1.1,0-2-1.3-2.7l-2.3-1.2c-0.2-0.1-0.7-0.4-0.7-0.5c0.1-0.2,0.9-0.4,1.1-0.4l0.5,0.3c1.4,0.7,2.9,0.4,3.7-1
	c0.3-0.6,0.3-1,0.3-1.6l1.1,0.6l0.4-0.8L185.6,120.8L185.6,120.8z M185,123.3c-0.4,0.8-1.2,1.2-2.2,0.7c-1-0.5-1.4-1.4-0.9-2.4
	c0.5-0.9,1.5-1.1,2.4-0.6C185.2,121.4,185.5,122.4,185,123.3L185,123.3z M183.1,127.3c0.7,0.3,1.3,0.7,0.8,1.6
	c-0.6,1.2-2.5,0.4-3.5-0.1c-0.7-0.3-2-1.1-1.6-2c0.3-0.6,1.1-0.7,1.7-0.8L183.1,127.3L183.1,127.3z M193.6,131.5l2.3,0.7l0.3-0.9
	l-1.3-0.4l1.7-5.4c0.1-0.4,0.3-0.8-0.2-0.9c-0.2-0.1-0.3,0-0.5,0.1c-0.5,0.2-1,0.1-1.5,0l-0.1,0.9l1.2,0.2l-1.4,4.3
	c-0.8,0.1-1.7,0.2-2.5-0.1c-1.1-0.3-1.3-1-0.7-2.6l1.1-3.4c0.1-0.4,0.3-0.8-0.2-0.9c-0.2-0.1-0.3,0-0.5,0.1c-0.5,0.2-1,0.1-1.5,0
	l-0.1,0.9l1.2,0.2l-1,3.2c-0.6,1.9,0,3,1.5,3.5c0.9,0.3,1.6,0.2,2.5,0.2L193.6,131.5L193.6,131.5z M202.9,124.5l-1-0.1l-0.2,1.8
	l-2.4-0.3l-0.1,0.9l2.4,0.3l-0.5,3.8c-0.2,1.6,0.4,2.5,1.7,2.6c1,0.1,2.4,0,3.4-0.1l-0.2-0.9c-0.9,0.1-2.1,0.3-3,0.2
	c-1.2-0.2-0.9-1.2-0.8-2l0.4-3.3l3.9,0.5l0.1-0.9l-3.9-0.5L202.9,124.5L202.9,124.5z M224.6,125.5c-0.7-0.1-1.5-0.1-2.2,0.1
	c-1.4,0.3-2.8,1.3-2.4,2.8c0.6,2.8,5.4,0,5.8,1.8c0.2,0.9-1.2,1.4-1.8,1.5c-2,0.4-2.4-0.1-2.9-1.4l-1,0.4c0.2,0.3,0.4,0.8,0.5,1.2
	c0.1,0.4,0.1,0.9,0.1,1.4l0.9,0.1l0-0.6c0.9,0.2,1.5,0.2,2.5,0c1.3-0.3,3.1-1.1,2.7-2.7c-0.6-2.8-5.4-0.2-5.8-1.9
	c-0.2-1,0.9-1.5,1.6-1.6c1.6-0.4,2,0.1,2.3,0.8l0.1,0.3l1-0.3c-0.2-0.3-0.3-0.7-0.3-1c-0.1-0.5-0.1-1.1-0.1-1.6l-0.9,0L224.6,125.5
	L224.6,125.5z M236.5,125.2c0-0.2-0.1-0.5-0.2-0.7c-0.8-1.9-2.5-2.6-4.4-1.8c-2,0.8-2.8,3-2,4.9c0.6,1.4,2.2,2.9,5,1.8
	c1.1-0.4,2.2-1.3,3-2.1l-0.6-0.7c-0.8,0.8-1.6,1.5-2.6,1.9c-1.7,0.7-3,0.3-3.7-1L236.5,125.2L236.5,125.2z M230.6,126.6
	c-0.2-1.3,0.5-2.6,1.6-3c1.2-0.5,2.5-0.1,3,1.2L230.6,126.6L230.6,126.6z M241.3,126.2l6.2-3.9l-0.5-0.8l-2.5,1.6l-3-4.8
	c-0.2-0.3-0.4-0.7-0.9-0.5c-0.2,0.1-0.2,0.3-0.2,0.5c-0.1,0.6-0.9,1.1-1.3,1.4l-1.3,0.7l0.6,0.7l1.3-0.7c0.5-0.3,0.9-0.7,1.4-1.1
	l2.7,4.3l-2.8,1.8L241.3,126.2L241.3,126.2z M240.2,115.5c-0.3-0.5-1-0.6-1.5-0.3c-0.5,0.3-0.7,1-0.4,1.5c0.3,0.5,1,0.6,1.5,0.3
	C240.3,116.6,240.5,116,240.2,115.5L240.2,115.5z M246.4,111.9l-0.8,0.7l1.3,1.4l-1.8,1.6l0.6,0.7l1.8-1.6l2.6,2.8
	c1.1,1.2,2.2,1.3,3.1,0.4c0.8-0.7,1.5-1.8,2.1-2.7l-0.8-0.4c-0.5,0.8-1.1,1.8-1.8,2.4c-0.9,0.8-1.5,0-2.1-0.7l-2.3-2.5l2.9-2.6
	l-0.6-0.7l-2.9,2.6L246.4,111.9L246.4,111.9z M258.2,96c-0.3-0.2-0.8-0.4-1,0c-0.1,0.2-0.1,0.3,0,0.5c0.1,0.3,0.1,0.6-0.1,1
	c-0.1,0.3-0.3,0.7-0.4,0.9l-0.3,0.5l0.9,0.3l0.2-0.4c0.3-0.5,0.5-1.1,0.6-1.6l7,3.6l-1.1,2.1l0.8,0.4l2.6-5l-0.8-0.4l-1,2L258.2,96
	L258.2,96z M265.6,89.7c0.4-1.3,1.4-1.8,2.7-1.4c1.4,0.5,1.7,1.7,1.3,3c-0.3,0.9-0.8,1.7-1.5,2.3l0.7,0.7c0.8-0.7,1.4-1.7,1.7-2.8
	c0.6-1.8,0-3.6-1.9-4.2c-1.3-0.4-1.9-0.1-2.9,0.7l0,0c-0.4-0.9-0.7-1.3-1.6-1.6c-1.5-0.5-2.9,0.3-3.4,1.7c-0.2,0.7-0.2,1.4,0,2.1
	c0.2,0.5,0.5,1,1,1.2c0.3,0.1,0.6,0,0.7-0.3c0.2-0.6-0.4-1.1-0.8-1.3c-0.2-0.4-0.2-0.8,0-1.2c0.4-1.1,1.3-1.4,2.3-1.1
	c1.1,0.4,1.2,1.3,0.9,2.3c-0.1,0.2-0.2,0.4-0.3,0.6l1,0.3L265.6,89.7L265.6,89.7z M271.3,77.7l1,0.7l-0.5,3.7l-0.3-0.4l-2.6-3.1
	c-0.8-1-1.9-1.8-3.2-2c-1.6-0.2-2.8,1-3,2.5c-0.2,1.3,0.5,3,2,3.2c0.3,0,0.6,0,0.6-0.4c0.1-0.6-0.5-1-1.2-1c-0.4-0.4-0.5-1-0.4-1.6
	c0.1-0.9,0.9-1.7,1.9-1.6c1.2,0.2,2.3,1.3,3,2.1l2.9,3.6l0.9,0.1l0.8-5.7l-1.7-1.1L271.3,77.7L271.3,77.7z M266.5,68.4l3.5-0.1
	l0.1,3.9c-2.2-1.3-4.6-2.5-7.1-3.1l-0.2,1c2.6,0.6,5.1,1.8,7.4,3.1l0.9,0l-0.2-4.9l1.7-0.1l0.1,1.7l0.9,0l-0.1-4.2l-0.9,0l0.1,1.4
	l-1.7,0.1l-0.1-1.4l-0.9,0l0.1,1.4l-3.5,0.1L266.5,68.4L266.5,68.4z"/>
</svg>
